<svg width="116" height="23" viewBox="0 0 116 23" fill="none" xmlns="http://www.w3.org/2000/svg">
<path d="M12.7613 0.290914V9.06594H4.1227V0.290914H0.239258V21.9402H4.1227V12.9229H12.7613V21.9402H16.6447V0.290914H12.7613ZM102.63 4.14791H106.954C108.728 4.14791 110.165 5.57497 110.165 7.33527C110.163 7.75546 110.079 8.17125 109.917 8.55891C109.755 8.94657 109.518 9.29849 109.22 9.59458C108.922 9.89067 108.568 10.1251 108.179 10.2845C107.791 10.444 107.374 10.5252 106.954 10.5237H102.63V4.14791ZM98.7491 0.290914V21.9402H102.632V12.3062L110.715 21.9402H115.761L109.135 14.0485C112.461 12.9906 114.518 9.69008 113.986 6.26364C113.454 2.83721 110.49 0.303609 106.999 0.290914H98.7428H98.7491ZM62.022 0.226384V13.7354L52.5953 0.226384H49.4937V21.8736H53.3782V8.30322L62.8514 21.8746H65.9002V0.226384H62.022ZM25.7688 11.1013C25.7709 7.09725 29.0408 3.85276 33.0724 3.85382C37.105 3.85593 40.3717 7.10254 40.3706 11.1066C40.3695 15.1106 37.1018 18.3562 33.0692 18.3562C31.1322 18.3562 29.2757 17.5924 27.9068 16.233C26.5379 14.8736 25.7688 13.0287 25.7688 11.1055V11.1013ZM21.8854 11.1055C21.8854 15.5993 24.6094 19.6489 28.789 21.369C32.9687 23.088 37.7788 22.1391 40.9778 18.9623C44.1768 15.7855 45.1342 11.0082 43.4025 6.85711C41.6718 2.70603 37.5926 0 33.0692 0C26.8955 0.00105787 21.8907 4.96987 21.8875 11.1023L21.8854 11.1055ZM75.0264 11.1013C75.0285 7.09725 78.2984 3.8517 82.331 3.85382C86.3636 3.85593 89.6292 7.10359 89.6271 11.1076C89.6261 15.1117 86.3562 18.3572 82.3236 18.3551C80.3877 18.3551 78.5311 17.5913 77.1612 16.2319C75.7912 14.8726 75.0232 13.0277 75.0232 11.1045L75.0264 11.1013ZM71.1398 11.1055C71.1387 15.5993 73.8638 19.6489 78.0424 21.369C82.222 23.088 87.0332 22.1391 90.2312 18.9623C93.4291 15.7855 94.3886 11.0082 92.6558 6.85711C90.9251 2.70603 86.847 0 82.3225 0C76.1488 0.00105787 71.143 4.96987 71.1398 11.1023V11.1055Z" fill="black"/>
</svg>
