<svg width="116" height="23" fill="none" xmlns="http://www.w3.org/2000/svg"><path d="M12.761.29v8.776H4.123V.29H.239v21.65h3.884v-9.018h8.638v9.017h3.884V.29H12.76Zm89.869 3.858h4.324c1.774 0 3.211 1.427 3.211 3.187a3.213 3.213 0 0 1-.945 2.26 3.197 3.197 0 0 1-2.266.929h-4.324V4.148ZM98.75.29v21.65h3.882v-9.635l8.083 9.634h5.046l-6.626-7.892c3.326-1.057 5.383-4.358 4.851-7.784-.532-3.427-3.496-5.96-6.987-5.973h-8.256.006ZM62.021.226v13.51L52.595.225h-3.101v21.648h3.884V8.304l9.473 13.57h3.05V.227h-3.879ZM25.769 11.101c.002-4.004 3.272-7.248 7.303-7.247 4.033.002 7.3 3.249 7.299 7.253-.002 4.004-3.27 7.25-7.302 7.25a7.326 7.326 0 0 1-5.162-2.124 7.226 7.226 0 0 1-2.138-5.128v-.004Zm-3.884.004c0 4.494 2.724 8.544 6.904 10.264 4.18 1.719 8.99.77 12.189-2.407a11.05 11.05 0 0 0 2.425-12.105C41.672 2.706 37.593 0 33.069 0c-6.174.001-11.178 4.97-11.182 11.102l-.002.003Zm53.141-.004c.002-4.004 3.272-7.25 7.305-7.247 4.033.002 7.298 3.25 7.296 7.254 0 4.004-3.27 7.25-7.303 7.247a7.33 7.33 0 0 1-5.163-2.123 7.221 7.221 0 0 1-2.138-5.127l.003-.004Zm-3.886.004c-.001 4.494 2.724 8.544 6.902 10.264a11.24 11.24 0 0 0 12.19-2.407 11.05 11.05 0 0 0 2.424-12.105C90.926 2.706 86.847 0 82.322 0 76.15.001 71.144 4.97 71.14 11.102v.003Z" fill="#000"/></svg>